<?xml version="1.0" encoding="UTF-8" standalone="no"?>
<!-- Generator: Adobe Illustrator 16.2.1, SVG Export Plug-In . SVG Version: 6.00 Build 0)  -->

<svg
   xmlns:dc="http://purl.org/dc/elements/1.1/"
   xmlns:cc="http://creativecommons.org/ns#"
   xmlns:rdf="http://www.w3.org/1999/02/22-rdf-syntax-ns#"
   xmlns:svg="http://www.w3.org/2000/svg"
   xmlns="http://www.w3.org/2000/svg"
   xmlns:sodipodi="http://sodipodi.sourceforge.net/DTD/sodipodi-0.dtd"
   xmlns:inkscape="http://www.inkscape.org/namespaces/inkscape"
   version="1.1"
   id="Layer_1"
   x="0px"
   y="0px"
   width="512px"
   height="512px"
   viewBox="0 0 512 512"
   enable-background="new 0 0 512 512"
   xml:space="preserve"
   inkscape:version="0.91 r13725"
   sodipodi:docname="ios-basketball-outline-3.svg"><metadata
     id="metadata4404"><rdf:RDF><cc:Work
         rdf:about=""><dc:format>image/svg+xml</dc:format><dc:type
           rdf:resource="http://purl.org/dc/dcmitype/StillImage" /><dc:title></dc:title></cc:Work></rdf:RDF></metadata><defs
     id="defs4402" /><sodipodi:namedview
     pagecolor="#ffffff"
     bordercolor="#666666"
     borderopacity="1"
     objecttolerance="10"
     gridtolerance="10"
     guidetolerance="10"
     inkscape:pageopacity="0"
     inkscape:pageshadow="2"
     inkscape:window-width="1596"
     inkscape:window-height="861"
     id="namedview4400"
     showgrid="false"
     inkscape:zoom="0.4609375"
     inkscape:cx="-121.49153"
     inkscape:cy="256"
     inkscape:window-x="0"
     inkscape:window-y="18"
     inkscape:window-maximized="0"
     inkscape:current-layer="Layer_1" /><g
     id="g4983"><path
       id="path4398"
       d="M 256 48 C 141.137 48 48 141.136 48 256 C 48 370.864 141.137 464 256 464 C 370.871 464 464 370.862 464 256 C 464 141.138 370.871 48 256 48 z M 256 65.337891 C 299.884 65.336891 340.34647 80.249719 372.60547 105.26172 C 372.32547 105.93772 372.05648 106.61506 371.77148 107.28906 C 364.7014 124.00503 356.7871 140.24998 348.0625 156 L 366.21484 156 C 373.13927 143.0115 379.54525 129.70542 385.38672 116.09766 C 423.04472 150.95066 446.66406 200.766 446.66406 256 C 446.66406 256.048 446.66211 256.09653 446.66211 256.14453 C 426.48426 254.58835 406.83244 250.13637 388 242.84766 L 388 259.9082 C 406.34223 266.42567 425.78539 270.62128 445.97656 272.13867 C 441.68656 323.05767 417.31155 368.34748 380.81055 400.02148 C 374.1271 384.96271 366.75376 370.27721 358.74219 356 L 340.37891 356 C 350.57885 373.47427 359.75278 391.58587 367.87109 410.29297 C 342.47109 428.75997 312.36294 441.12241 279.71094 445.19141 C 278.19326 413.25066 269.98295 383.06625 256.46094 356 L 238.4375 356 C 241.8198 362.16525 244.8992 368.51589 247.66016 375.04297 C 257.27416 397.77197 262.67439 421.76619 263.77539 446.49219 C 261.19539 446.59619 258.605 446.66406 256 446.66406 C 202.317 446.66406 153.75041 424.35239 119.06641 388.52539 C 139.98117 378.97462 160.15866 368.09242 179.50195 356 L 148.10352 356 C 135.05556 363.22957 121.66706 369.8999 107.95312 375.99805 C 81.321125 343.20405 65.335938 301.437 65.335938 256 C 65.335938 253.396 65.403813 250.80947 65.507812 248.23047 C 88.866209 249.29019 111.33029 254.21659 132 262.32617 L 132 245.25 C 111.4931 237.85429 89.599857 233.35671 66.810547 232.27344 C 70.880547 199.62744 83.243031 169.52491 101.70703 144.12891 C 111.98806 148.59041 122.08506 153.37639 132 158.4707 L 132 156 L 160.82227 156 C 145.03563 146.92159 128.74049 138.62863 111.98047 131.18945 C 143.61647 94.733453 188.83378 70.375922 239.67578 66.044922 C 242.14598 98.44906 251.51636 128.91751 266.31055 156 L 284.71094 156 C 279.65805 147.60769 275.1908 138.84612 271.33984 129.74219 C 262.64284 109.17919 257.40597 87.579797 255.66797 65.341797 C 255.77897 65.341797 255.889 65.337891 256 65.337891 z " /><g
       id="text4155"
       style="font-style:normal;font-variant:normal;font-weight:normal;font-stretch:normal;font-size:174.72039795px;line-height:125%;font-family:Arial;-inkscape-font-specification:Arial;text-align:center;letter-spacing:0px;word-spacing:0px;text-anchor:middle;fill:#000000;fill-opacity:1;stroke:none;stroke-width:1px;stroke-linecap:butt;stroke-linejoin:miter;stroke-opacity:1"
       transform="matrix(0.95354681,0,0,1.0487162,0.19907814,-2.5682958)"><path
         id="path4319"
         d="m 191.85119,285.95023 0,-34.2957 -34.03977,0 0,-14.33253 34.03977,0 0,-34.03977 14.50316,0 0,34.03977 34.03976,0 0,14.33253 -34.03976,0 0,34.2957 -14.50316,0 z"
         inkscape:connector-curvature="0" /><path
         id="path4321"
         d="m 305.91426,273.15333 15.35629,-2.04751 q 2.64469,13.05285 8.95783,18.85411 6.39845,5.71595 15.52691,5.71595 10.83471,0 18.25692,-7.50752 7.50751,-7.50751 7.50751,-18.59816 0,-10.57878 -6.91033,-17.40379 -6.91032,-6.91033 -17.57441,-6.91033 -4.35095,0 -10.83471,1.70625 l 1.70625,-13.4794 q 1.53563,0.17062 2.47407,0.17062 9.81096,0 17.65973,-5.11876 7.84876,-5.11876 7.84876,-15.78285 0,-8.44595 -5.71595,-13.99128 -5.71595,-5.54533 -14.75909,-5.54533 -8.95784,0 -14.92972,5.63064 -5.97189,5.63064 -7.67815,16.89192 l -15.35628,-2.73001 q 2.81532,-15.4416 12.7969,-23.88755 9.98159,-8.53127 24.826,-8.53127 10.23752,0 18.8541,4.43626 8.61658,4.35094 13.13816,11.94377 4.60688,7.59283 4.60688,16.1241 0,8.10471 -4.35094,14.7591 -4.35095,6.65439 -12.88222,10.57877 11.09065,2.55938 17.23316,10.66409 6.14252,8.01939 6.14252,20.1338 0,16.38003 -11.94378,27.81193 -11.94378,11.34659 -30.20069,11.34659 -16.46535,0 -27.38538,-9.81096 -10.83471,-9.81096 -12.37034,-25.42318 z"
         inkscape:connector-curvature="0" /></g></g></svg>