<?xml version="1.0" encoding="UTF-8" standalone="no"?>
<!-- Generator: Adobe Illustrator 16.2.1, SVG Export Plug-In . SVG Version: 6.00 Build 0)  -->

<svg
   xmlns:dc="http://purl.org/dc/elements/1.1/"
   xmlns:cc="http://creativecommons.org/ns#"
   xmlns:rdf="http://www.w3.org/1999/02/22-rdf-syntax-ns#"
   xmlns:svg="http://www.w3.org/2000/svg"
   xmlns="http://www.w3.org/2000/svg"
   xmlns:sodipodi="http://sodipodi.sourceforge.net/DTD/sodipodi-0.dtd"
   xmlns:inkscape="http://www.inkscape.org/namespaces/inkscape"
   version="1.1"
   id="Layer_1"
   x="0px"
   y="0px"
   width="512px"
   height="512px"
   viewBox="0 0 512 512"
   enable-background="new 0 0 512 512"
   xml:space="preserve"
   inkscape:version="0.91 r13725"
   sodipodi:docname="ios-basketball-3.svg"><metadata
     id="metadata9"><rdf:RDF><cc:Work
         rdf:about=""><dc:format>image/svg+xml</dc:format><dc:type
           rdf:resource="http://purl.org/dc/dcmitype/StillImage" /><dc:title></dc:title></cc:Work></rdf:RDF></metadata><defs
     id="defs7" /><sodipodi:namedview
     pagecolor="#ffffff"
     bordercolor="#666666"
     borderopacity="1"
     objecttolerance="10"
     gridtolerance="10"
     guidetolerance="10"
     inkscape:pageopacity="0"
     inkscape:pageshadow="2"
     inkscape:window-width="1596"
     inkscape:window-height="861"
     id="namedview5"
     showgrid="false"
     inkscape:zoom="0.4609375"
     inkscape:cx="-117.15254"
     inkscape:cy="82.440678"
     inkscape:window-x="0"
     inkscape:window-y="18"
     inkscape:window-maximized="0"
     inkscape:current-layer="Layer_1" /><g
     id="g4323"><path
       id="path3"
       d="M 256 48 C 141.137 48 48 141.136 48 256 C 48 370.864 141.137 464 256 464 C 370.871 464 464 370.862 464 256 C 464 141.138 370.871 48 256 48 z M 255.66797 65.341797 C 257.40597 87.579797 262.64089 109.17919 271.33789 129.74219 C 275.18883 138.84645 279.65612 147.60774 284.70898 156 L 348.0625 156 C 356.78709 140.25001 364.69946 124.00499 371.76953 107.28906 C 372.05453 106.61506 372.32547 105.93672 372.60547 105.26172 C 377.02447 108.68772 381.28677 112.3027 385.38477 116.0957 C 379.5426 129.70373 373.13531 143.01064 366.21094 156 L 388.13672 156 L 388.13672 242.90234 C 406.92757 250.15968 426.53111 254.59302 446.66016 256.14453 C 446.65616 261.53153 446.41766 266.86272 445.97266 272.13672 C 425.83314 270.62271 406.43861 266.4437 388.13672 259.95508 L 388.13672 356 L 358.72656 356 C 366.73859 370.28137 374.11165 384.96883 380.79688 400.03125 C 376.63887 403.63925 372.31747 407.06169 367.85547 410.30469 C 359.73671 391.59571 350.56333 373.478 340.36523 356 L 256.46484 356 C 269.98922 383.06556 278.20238 413.24792 279.7207 445.1875 C 274.4687 445.8425 269.14839 446.27323 263.77539 446.49023 C 262.67239 421.76323 257.27611 397.77002 247.66211 375.04102 C 244.90119 368.51403 241.8217 362.16517 238.43945 356 L 179.50391 356 C 160.16156 368.09411 139.98644 378.97911 119.07227 388.5293 C 115.18927 384.5183 111.48003 380.33995 107.95703 376.00195 C 121.67058 369.90343 135.05801 363.23025 148.10547 356 L 132.13672 356 L 132.13672 262.37695 C 111.42875 254.23544 88.917657 249.28965 65.507812 248.22852 C 65.724812 242.84952 66.155547 237.52553 66.810547 232.26953 C 89.650644 233.3552 111.59064 237.86944 132.13672 245.29492 L 132.13672 158.54102 C 122.17792 153.4205 112.03532 148.61075 101.70703 144.12891 C 104.95003 139.66791 108.37152 135.34645 111.97852 131.18945 C 128.73757 138.62858 145.03247 146.92191 160.81836 156 L 266.31055 156 C 251.51727 128.91712 242.1485 98.448042 239.67773 66.044922 C 244.95073 65.595922 250.28197 65.351797 255.66797 65.341797 z " /><g
       id="text4155"
       style="font-style:normal;font-variant:normal;font-weight:normal;font-stretch:normal;font-size:174.72039795px;line-height:125%;font-family:Arial;-inkscape-font-specification:Arial;text-align:center;letter-spacing:0px;word-spacing:0px;text-anchor:middle;fill:#000000;fill-opacity:1;stroke:none;stroke-width:1px;stroke-linecap:butt;stroke-linejoin:miter;stroke-opacity:1"
       transform="scale(0.95354681,1.0487162)"><path
         id="path4319"
         style=""
         d="m 191.85119,285.95023 0,-34.2957 -34.03977,0 0,-14.33253 34.03977,0 0,-34.03977 14.50316,0 0,34.03977 34.03976,0 0,14.33253 -34.03976,0 0,34.2957 -14.50316,0 z" /><path
         id="path4321"
         style=""
         d="m 305.91426,273.15333 15.35629,-2.04751 q 2.64469,13.05285 8.95783,18.85411 6.39845,5.71595 15.52691,5.71595 10.83471,0 18.25692,-7.50752 7.50751,-7.50751 7.50751,-18.59816 0,-10.57878 -6.91033,-17.40379 -6.91032,-6.91033 -17.57441,-6.91033 -4.35095,0 -10.83471,1.70625 l 1.70625,-13.4794 q 1.53563,0.17062 2.47407,0.17062 9.81096,0 17.65973,-5.11876 7.84876,-5.11876 7.84876,-15.78285 0,-8.44595 -5.71595,-13.99128 -5.71595,-5.54533 -14.75909,-5.54533 -8.95784,0 -14.92972,5.63064 -5.97189,5.63064 -7.67815,16.89192 l -15.35628,-2.73001 q 2.81532,-15.4416 12.7969,-23.88755 9.98159,-8.53127 24.826,-8.53127 10.23752,0 18.8541,4.43626 8.61658,4.35094 13.13816,11.94377 4.60688,7.59283 4.60688,16.1241 0,8.10471 -4.35094,14.7591 -4.35095,6.65439 -12.88222,10.57877 11.09065,2.55938 17.23316,10.66409 6.14252,8.01939 6.14252,20.1338 0,16.38003 -11.94378,27.81193 -11.94378,11.34659 -30.20069,11.34659 -16.46535,0 -27.38538,-9.81096 -10.83471,-9.81096 -12.37034,-25.42318 z" /></g></g></svg>